<?xml version="1.0" standalone="no"?>
<!DOCTYPE svg PUBLIC "-//W3C//DTD SVG 20010904//EN"
 "http://www.w3.org/TR/2001/REC-SVG-20010904/DTD/svg10.dtd">
<svg version="1.0" xmlns="http://www.w3.org/2000/svg"
 width="728.000000pt" height="671.000000pt" viewBox="0 0 728.000000 671.000000"
 preserveAspectRatio="xMidYMid meet">

<g transform="translate(0.000000,671.000000) scale(0.100000,-0.100000)"
fill="#FFFFFF" stroke="none">
<path d="M6337 6117 c-15 -190 -78 -289 -204 -317 -61 -14 -117 -7 -358 46
-662 144 -1163 192 -1545 148 -864 -99 -1580 -521 -2034 -1199 -98 -146 -226
-412 -287 -595 -28 -85 -53 -157 -55 -159 -7 -7 -163 131 -242 213 -133 142
-230 311 -274 481 -32 128 -33 369 0 498 56 223 163 388 335 518 305 231 742
290 1125 154 99 -36 110 -35 146 3 20 23 29 18 -104 52 -19 5 -93 19 -165 31
-153 26 -440 31 -595 10 -668 -89 -1063 -446 -1141 -1029 -17 -131 -7 -375 21
-492 59 -248 186 -459 393 -657 84 -81 259 -216 368 -285 l56 -36 1 -164 c5
-855 363 -1593 1012 -2082 108 -81 242 -166 342 -217 37 -19 68 -37 68 -41 1
-23 -205 -147 -314 -189 -579 -224 -1185 -43 -1645 491 -238 276 -405 647
-429 950 -6 79 -10 95 -25 98 -16 3 -17 -47 -17 -933 0 -886 1 -936 18 -933
14 3 18 18 23 79 13 164 76 259 191 294 96 28 166 19 523 -65 362 -86 608
-114 928 -107 368 8 590 55 866 183 51 24 97 41 103 38 26 -17 261 -90 383
-120 191 -46 365 -72 592 -86 315 -20 570 5 973 96 463 104 634 131 787 124
164 -7 252 -64 269 -174 5 -34 10 -44 25 -44 18 0 19 24 19 879 0 1034 6 1133
79 1287 60 127 146 179 327 200 49 5 61 10 59 23 -2 15 -60 16 -676 16 -612 0
-674 -1 -677 -16 -2 -13 10 -18 60 -23 179 -20 271 -75 329 -196 70 -145 79
-265 79 -1032 l0 -626 -47 -35 c-179 -131 -455 -273 -662 -341 -174 -57 -322
-86 -486 -94 -423 -22 -811 51 -1188 226 l-97 45 83 81 c134 131 218 254 282
412 95 236 115 546 50 799 -31 120 -122 310 -196 408 -161 213 -394 407 -746
620 -140 85 -494 279 -499 274 -8 -8 -23 -259 -24 -389 l0 -127 93 -52 c604
-340 875 -632 957 -1029 18 -88 21 -128 17 -250 -5 -162 -28 -262 -93 -399
-33 -70 -113 -193 -134 -206 -23 -14 -285 208 -402 340 -432 486 -654 1083
-693 1860 -12 246 27 618 91 855 137 511 411 951 785 1262 455 377 1021 553
1552 483 804 -105 1520 -697 1632 -1349 8 -49 15 -106 15 -127 0 -32 3 -39 20
-39 20 0 20 7 20 880 0 850 -1 880 -19 880 -16 0 -19 -11 -24 -83z"/>
</g>
</svg>
